<?xml version="1.0" encoding="UTF-8" standalone="no"?>
<svg
   id="Layer_1"
   data-name="Layer 1"
   width="1082"
   height="1082"
   viewBox="0 0 1082 1082"
   version="1.1"
   xmlns="http://www.w3.org/2000/svg"
   xmlns:svg="http://www.w3.org/2000/svg"
   xmlns:rdf="http://www.w3.org/1999/02/22-rdf-syntax-ns#"
   xmlns:cc="http://creativecommons.org/ns#"
   xmlns:dc="http://purl.org/dc/elements/1.1/">
  <defs
     id="defs1">
    <style
       id="style1">.cls-1{fill:#414143;}.cls-2{fill:#bc2026;}.cls-3{fill:#e11b23;}.cls-4{fill:#040302;}</style>
  </defs>
  <g id="layer1">
    <rect
       style="fill:#ffffff;fill-opacity:1"
       id="rect7"
       width="1082"
       height="1082"
       x="0"
       y="0"
       rx="300" />
  </g>
  <g
     id="g7"
     transform="translate(99.552251,99.396653)">
    <path
       class="cls-1"
       d="m 607.6395,660.4762 -23.5234,-12.1669 32.6751,9.7327 a 24.662,24.662 0 0 1 -9.1517,2.4342 z"
       id="path1" />
    <path
       class="cls-2"
       d="m 125.4568,428.3254 a 98.48,98.48 0 0 0 -4.6542,31.1509 c 0.1589,7.2578 1.5556,14.4128 3.1177,21.5073 a 8.7844,8.7844 0 0 0 -0.2018,5.0183 c 1.6318,7.3383 2.1917,14.8371 4.4523,22.1218 a 152.5956,152.5956 0 0 0 10.5561,26.1821 220.1158,220.1158 0 0 0 16.3325,26.7 251.6938,251.6938 0 0 0 21.7561,26.0689 c 7.2131,7.5492 15.3869,14.1071 23.5146,20.6719 a 251.12,251.12 0 0 0 33.6681,22.5151 164.0818,164.0818 0 0 0 21.5548,10.0743 c 3.1413,1.23 6.6211,1.4292 9.5017,3.32 -6.1616,2.0235 -12.6068,1.9082 -18.942,2.1573 -9.4863,0.3729 -18.9985,0.313 -28.4949,0.1541 -21.1154,-0.3533 -41.545,-4.6585 -61.5287,-11.2381 -24.76,-8.1519 -48.479,-18.6578 -69.6893,-33.92 -20.75,-14.9306 -39.691,-31.9569 -54.4443,-53.1158 A 171.8021,171.8021 0 0 1 4.5265,484.7955 130.5915,130.5915 0 0 1 2.4927,443.1284 c 2.5388,-23.5678 10.46,-45.3569 22.6515,-65.61 11.1766,-18.5666 25.7043,-34.2857 41.57,-48.911 20.04,-18.4739 42.8952,-32.5467 67.6526,-43.5976 a 248.8122,248.8122 0 0 1 58.0864,-18 263.7073,263.7073 0 0 1 46.1376,-4.3148 c 8.6913,-10e-4 17.28,1.4906 25.8842,2.6234 a 94.3667,94.3667 0 0 1 16.3281,3.1784 c -2.48,0.5994 -4.9356,1.3382 -7.4442,1.77 a 75.19,75.19 0 0 0 -16.8106,5.0489 c -5.1032,2.1819 -10.0595,4.7094 -14.9757,7.3193 a 260.6251,260.6251 0 0 0 -23.2859,13.8643 284.5874,284.5874 0 0 0 -27.1867,20.9256 253.3225,253.3225 0 0 0 -21.5937,21.4988 203.8708,203.8708 0 0 0 -17.511,22.6258 187.8951,187.8951 0 0 0 -14.7785,25.8927 135.1669,135.1669 0 0 0 -6.6151,15.9214 c -2.6197,8.1239 -5.5617,16.2031 -5.1449,24.9618 z"
       id="path2" />
    <path
       class="cls-1"
       d="m 749.36,496.439 c -0.3206,10.6116 -2.6592,20.8417 -5.7828,30.9332 -5.4165,17.4994 -13.55,33.7893 -22.5716,49.6168 -6.6344,11.6394 -15.3069,21.8149 -24.44,31.6189 a 181.67,181.67 0 0 1 -23.2721,21.0228 173.7519,173.7519 0 0 1 -19.4177,12.8568 c -9.2511,5.2257 -19.0671,8.9772 -28.9715,12.62 -2.6993,0.9928 -5.3167,2.1942 -8.1137,2.9344 -0.829,0.2194 -18.8091,-2.53 -30.2294,-8.44 -19.9773,-10.3389 -37.0467,-24.5234 -53.505,-39.6413 -12.1338,-11.1456 -24.771,-21.7428 -37.168,-32.6024 -18.7882,-16.4582 -37.96,-32.467 -57.213,-48.3718 -21.5587,-17.81 -43.3,-35.3989 -65.4776,-52.443 -11.5605,-8.8845 -23.1527,-17.7421 -34.0559,-27.4477 a 1.4762,1.4762 0 0 1 -0.7923,-1.574 c 3.9033,0.6508 7.7864,1.2315 11.6433,1.952 29.997,5.6036 58.3274,16.766 87.1657,26.2223 24.8167,8.1376 48.8839,18.3312 73.5163,26.9876 23.0247,8.0914 45.8853,16.6564 69.1853,23.9479 17.7738,5.5624 35.7076,10.7123 54.12,13.522 16.4635,2.5124 33.0831,4.3865 49.8231,2.4174 24.7616,-2.9126 43.4416,-15.8119 58.0234,-35.393 2.6104,-3.5056 5.0273,-7.1555 7.5335,-10.7389 z"
       id="path3" />
    <path
       class="cls-3"
       d="m 125.4568,428.3254 c -0.4169,-8.7586 2.5252,-16.8379 5.1454,-24.9617 a 135.1669,135.1669 0 0 1 6.6151,-15.9214 187.8951,187.8951 0 0 1 14.7785,-25.8923 203.8708,203.8708 0 0 1 17.511,-22.6258 253.3225,253.3225 0 0 1 21.5932,-21.4993 284.5874,284.5874 0 0 1 27.1857,-20.9262 260.6251,260.6251 0 0 1 23.2859,-13.8643 c 4.9163,-2.61 9.8725,-5.1373 14.9757,-7.3193 a 75.19,75.19 0 0 1 16.8106,-5.0489 c 2.5086,-0.432 4.9644,-1.1708 7.4442,-1.77 7.4923,1.3024 14.5534,4.0436 21.6657,6.5818 16.4957,5.8869 31.1975,14.97 45.53,24.9245 30.4253,21.13 60.6067,42.5868 90.1867,64.8855 q 42.94,32.37 84.8676,66.042 c 7.1554,5.7538 14.3561,11.4885 20.7771,18.0983 0.6633,0.6828 1.6,1.182 1.9527,2.5277 a 111.3293,111.3293 0 0 1 -16.8688,-2.8894 c -21.5677,-5.0453 -42.3037,-12.8415 -63.425,-19.3669 -29.2082,-9.0237 -57.894,-19.6549 -87.192,-28.3939 -25.84,-7.7075 -51.82,-14.9384 -78.2065,-20.5411 a 334.4455,334.4455 0 0 0 -54.1709,-7.114 c -9.2972,-0.4277 -18.5809,-0.7407 -27.864,-0.4682 -24.88,0.73 -47.832,7.2456 -67.2059,23.6172 a 105.89,105.89 0 0 0 -24.1051,29.9465 c -0.38,0.6864 -0.8554,1.3206 -1.2869,1.9792 z"
       id="path4" />
    <path
       class="cls-1"
       d="m 622.2123,219.3243 c 6.1328,4.125 12.9928,6.8579 19.626,9.9722 23.3648,10.97 44.2708,25.3025 61.5349,44.5956 a 166.9154,166.9154 0 0 1 25.5362,38.4179 c 5.6268,11.5268 11.3892,22.9516 15.5938,35.1025 2.5091,7.2511 3.8672,14.7648 5.4775,22.2265 2.3628,10.9479 4.1816,22.0132 7.0915,32.844 a 6.9945,6.9945 0 0 1 0.0131,1.7768 c -2.5086,-5.1873 -4.995,-10.3854 -7.53,-15.56 C 740.68,370.582 727.28,356.9521 709.043,348.24 a 69.9981,69.9981 0 0 0 -29.123,-7.06 c -28.6126,-0.5552 -51.8639,10.915 -70.9725,31.5508 -5.1469,5.5582 -9.1159,12.1084 -14.1211,17.8388 -8.4931,9.7236 -19.4438,11.8952 -31.647,11.6063 -9.3218,-0.2207 -16.51,-4.562 -23.4183,-10.0413 -8.9964,-7.1354 -18.1873,-14.03 -27.0757,-21.2959 -11.7139,-9.5756 -15.61,-22.1682 -14.5536,-37.0564 0.914,-12.8871 7.9481,-22.4936 15.1506,-32.19 13.9865,-18.8287 30.9375,-34.6858 49.3637,-49.055 17.9979,-14.0343 38.0017,-24.5073 58.9826,-33.2473 0.1613,-0.0674 0.3876,0.0194 0.5836,0.0343 z"
       id="path5" />
    <path
       class="cls-3"
       d="m 265.0547,643.6556 c -2.8806,-1.89 -6.36,-2.0892 -9.5017,-3.32 A 164.0818,164.0818 0 0 1 233.9981,630.2611 251.12,251.12 0 0 1 200.33,607.7464 c -8.1276,-6.5647 -16.3014,-13.1227 -23.5146,-20.6719 a 251.6938,251.6938 0 0 1 -21.7561,-26.0689 220.1158,220.1158 0 0 1 -16.3325,-26.7 152.5956,152.5956 0 0 1 -10.5561,-26.1821 c -2.2606,-7.2847 -2.82,-14.7835 -4.4523,-22.1218 a 8.7844,8.7844 0 0 1 0.2018,-5.0183 c 1.867,3.1748 3.7568,6.3365 5.5974,9.5267 13.308,23.0656 33.5186,36.8232 58.7729,44.0167 28.1045,8.0053 54.0144,3.149 78.0591,-12.8848 6.5179,-4.3463 11.6685,-10.29 16.8907,-16.0573 6.6385,-7.3312 14.5315,-12.6873 24.3271,-14.1938 9.4355,-1.4511 18.9032,-0.4948 27.1822,4.7249 a 240.5142,240.5142 0 0 1 41.4026,32.9042 c 6.0188,5.984 8.2616,13.9522 9.0859,22.2365 1.3738,13.8063 -4.8767,24.6394 -13.5615,34.5787 a 182.5454,182.5454 0 0 1 -47.3079,38.2123 c -11.8593,6.7948 -24.8579,10.741 -37.9019,14.478 -6.4077,1.8358 -12.8913,3.4082 -19.3509,5.06 a 9.4283,9.4283 0 0 1 -2.0612,0.0701 z"
       id="path6" />
    <path
       class="cls-4"
       d="m 622.2123,219.3243 a 170.2545,170.2545 0 0 1 39.5131,-9.9678 c 13.6939,-1.7575 27.3659,-3.1184 41.1823,-2.8527 12.3538,0.2375 24.2492,3.1 36.0649,6.3067 25.3309,6.8742 47.174,19.963 66.6861,37.3407 22.93,20.422 39.44,45.3043 51.7894,73.1716 6.5448,14.7693 12.0223,29.9215 15.397,45.7347 2.3458,10.9922 4.0483,22.1123 5.7554,33.2318 a 243.4683,243.4683 0 0 1 2.4632,44.192 318.8488,318.8488 0 0 1 -5.0676,48.7657 c -6.4592,34.9276 -18.7551,67.5629 -38.1719,97.5244 -15.9752,24.6509 -35.952,45.2145 -61.1,60.203 -17.3773,10.357 -35.9112,18.854 -56.2927,21.5106 a 276.3964,276.3964 0 0 1 -52.9157,1.6831 142.032,142.032 0 0 1 -32.6126,-5.4663 c -4.5419,-1.3766 -11.9254,-4.2714 -13.4165,-4.8195 a 108.8718,108.8718 0 0 1 -13.8475,-5.406 c 2.1887,-0.2324 6.6887,-1.7012 9.1517,-2.4342 2.797,-0.74 5.4144,-1.9417 8.1137,-2.9344 9.9043,-3.6428 19.72,-7.3943 28.9715,-12.62 a 173.7519,173.7519 0 0 0 19.4177,-12.8568 181.67,181.67 0 0 0 23.2721,-21.0228 c 9.1326,-9.804 17.8051,-19.98 24.44,-31.6189 9.0217,-15.8275 17.1552,-32.1174 22.5716,-49.6168 3.1236,-10.0915 5.4623,-20.3216 5.7828,-30.9332 2.6463,-6.4365 5.6567,-12.7311 7.6632,-19.4181 a 125.2,125.2 0 0 0 5.0892,-43.1011 151.4941,151.4941 0 0 0 -5.0271,-29.66 6.9945,6.9945 0 0 0 -0.0131,-1.7768 c -2.91,-10.8307 -4.7287,-21.8961 -7.0915,-32.844 -1.61,-7.4617 -2.9684,-14.9755 -5.4775,-22.2265 -4.2046,-12.1509 -9.9669,-23.5758 -15.5938,-35.1025 a 166.9154,166.9154 0 0 0 -25.5363,-38.4177 c -17.2641,-19.2931 -38.17,-33.6256 -61.5349,-44.5956 -6.6334,-3.1148 -13.4935,-5.8477 -19.6262,-9.9726 z"
       id="path7" />
  </g>
</svg>
